STARTFONT 2.1
COMMENT Copyright (C) 1990-1991 EWT Consulting
COMMENT Portions Copyright (C) 1994-1995 Cronyx Ltd.
COMMENT Changes Copyright (C) 1996-1997 by Andrey A. Chernov, Moscow, Russia.
COMMENT Modified by Serge Vakulenko, <vak@cronyx.ru>
COMMENT Changes 1999 by Serge Winitzki.
COMMENT This software may be used, modified, copied, distributed, and sold,
COMMENT in both source and binary form provided that the copyright
COMMENT and these terms are retained. Under no circumstances is the author
COMMENT responsible for the proper functioning of this software, nor does
COMMENT the author assume any responsibility for damages incurred with its use.
COMMENT $XFree86$
FONT -Cronyx-Times-Bold-I-Normal--20-140-100-100-P-74-KOI8-R
SIZE 14 96 96
FONTBOUNDINGBOX 23 20 -2 -4
STARTPROPERTIES 21
DEFAULT_CHAR 32
FONT_ASCENT 16
FONT_DESCENT 5
SPACING "P"
FONTNAME_REGISTRY ""
FOUNDRY "Cronyx"
FAMILY_NAME "Times"
WEIGHT_NAME "Bold"
SLANT "I"
SETWIDTH_NAME "Normal"
ADD_STYLE_NAME ""
AVERAGE_WIDTH 74
CHARSET_REGISTRY "KOI8"
CHARSET_ENCODING "R"
PIXEL_SIZE 20
POINT_SIZE 140
RESOLUTION_X 100
RESOLUTION_Y 100
COPYRIGHT "Copyright (C) 1990, 1991 EWT Consulting, Portions Copyright (C) 1994 Cronyx Ltd., Portions Copyright (C) 1996-1997 by Andrey A. Chernov, Moscow, Russia."
_XMBDFED_INFO "Edited with xmbdfed 3.8."
_XFREE86_GLYPH_RANGES "32_126 149 154 156_158 163 179 191_255"
ENDPROPERTIES
CHARS 167
STARTCHAR space
ENCODING 32
SWIDTH 263 0
DWIDTH 5 0
BBX 0 0 -1 0
BITMAP
ENDCHAR
STARTCHAR exclam
ENCODING 33
SWIDTH 385 0
DWIDTH 5 0
BBX 6 13 0 0
BITMAP
1C
1C
38
38
38
38
70
70
70
00
00
E0
E0
ENDCHAR
STARTCHAR quotedbl
ENCODING 34
SWIDTH 2250 0
DWIDTH 9 0
BBX 8 4 2 9
BITMAP
77
EE
EE
EE
ENDCHAR
STARTCHAR numbersign
ENCODING 35
SWIDTH 714 0
DWIDTH 10 0
BBX 13 14 -1 0
BITMAP
03F0
03F0
03F0
07E0
1FF0
0FC0
0FC0
1F80
1F80
7FC0
3F00
7E00
7E00
7E00
ENDCHAR
STARTCHAR dollar
ENCODING 36
SWIDTH 588 0
DWIDTH 10 0
BBX 12 17 0 -2
BITMAP
0180
0180
07C0
0FE0
1F60
1F60
3E00
1F00
0F80
0780
0F80
6F80
6F80
7F00
7C00
1800
1800
ENDCHAR
STARTCHAR percent
ENCODING 37
SWIDTH 1231 0
DWIDTH 16 0
BBX 17 13 0 0
BITMAP
078700
0FFE00
39B800
39B800
3B7000
1EE000
01C000
03BC00
077600
07E600
1DCC00
39D800
38F000
ENDCHAR
STARTCHAR ampersand
ENCODING 38
SWIDTH 1154 0
DWIDTH 15 0
BBX 17 13 0 0
BITMAP
03E000
077000
0E6000
0EE000
07C000
079E00
1F1800
3B9800
71F000
70E000
E1C000
73EC00
3F7800
ENDCHAR
STARTCHAR quotesingle
ENCODING 39
SWIDTH 1250 0
DWIDTH 5 0
BBX 4 4 2 9
BITMAP
70
E0
E0
E0
ENDCHAR
STARTCHAR parenleft
ENCODING 40
SWIDTH 368 0
DWIDTH 7 0
BBX 9 19 -1 -4
BITMAP
0180
0380
0300
0700
0E00
0C00
1C00
1C00
3800
3800
3800
3800
7000
3000
3800
3800
3000
3800
1800
ENDCHAR
STARTCHAR parenright
ENCODING 41
SWIDTH 368 0
DWIDTH 7 0
BBX 9 19 -1 -4
BITMAP
0C00
0E00
0600
0700
0E00
0600
0700
0700
0E00
0E00
0E00
0E00
1C00
1800
3800
3800
6000
E000
C000
ENDCHAR
STARTCHAR asterisk
ENCODING 42
SWIDTH 1429 0
DWIDTH 10 0
BBX 7 7 2 7
BITMAP
18
7E
7E
3C
FC
FC
30
ENDCHAR
STARTCHAR plus
ENCODING 43
SWIDTH 1375 0
DWIDTH 11 0
BBX 11 8 1 3
BITMAP
0700
0E00
0E00
7FC0
7FC0
1C00
1C00
1C00
ENDCHAR
STARTCHAR comma
ENCODING 44
SWIDTH 1000 0
DWIDTH 5 0
BBX 4 5 0 -3
BITMAP
70
70
60
60
C0
ENDCHAR
STARTCHAR hyphen
ENCODING 45
SWIDTH 4000 0
DWIDTH 8 0
BBX 7 2 1 6
BITMAP
FE
FE
ENDCHAR
STARTCHAR period
ENCODING 46
SWIDTH 2500 0
DWIDTH 5 0
BBX 3 2 0 0
BITMAP
E0
E0
ENDCHAR
STARTCHAR slash
ENCODING 47
SWIDTH 375 0
DWIDTH 6 0
BBX 10 16 -1 -2
BITMAP
01C0
0380
0380
0380
0700
0E00
0E00
0E00
1C00
3800
3800
3800
7000
E000
E000
E000
ENDCHAR
STARTCHAR zero
ENCODING 48
SWIDTH 769 0
DWIDTH 10 0
BBX 11 13 0 0
BITMAP
0780
0FC0
39C0
39C0
39C0
39C0
7380
7380
7380
7380
E700
7E00
3C00
ENDCHAR
STARTCHAR one
ENCODING 49
SWIDTH 769 0
DWIDTH 10 0
BBX 10 13 1 0
BITMAP
0300
0700
3E00
0E00
0E00
0E00
1C00
1C00
1C00
1C00
3800
3800
FE00
ENDCHAR
STARTCHAR two
ENCODING 50
SWIDTH 769 0
DWIDTH 10 0
BBX 11 13 0 0
BITMAP
0780
0FC0
33C0
01C0
01C0
0380
0600
0E00
1C00
1800
6300
FF00
FE00
ENDCHAR
STARTCHAR three
ENCODING 51
SWIDTH 769 0
DWIDTH 10 0
BBX 11 13 0 0
BITMAP
0780
0DC0
31C0
01C0
0180
0300
1F00
0780
0380
0380
0700
EE00
7C00
ENDCHAR
STARTCHAR four
ENCODING 52
SWIDTH 769 0
DWIDTH 10 0
BBX 11 13 0 0
BITMAP
01C0
01C0
0780
0780
0F80
0F80
3700
3700
7F80
7F80
0E00
0E00
0E00
ENDCHAR
STARTCHAR five
ENCODING 53
SWIDTH 769 0
DWIDTH 10 0
BBX 11 13 0 0
BITMAP
07E0
07E0
1800
1800
3F00
3F80
0780
0380
0380
0380
0700
EE00
7C00
ENDCHAR
STARTCHAR six
ENCODING 54
SWIDTH 769 0
DWIDTH 10 0
BBX 11 13 0 0
BITMAP
03C0
0700
1C00
1C00
3800
3F00
7F00
7380
7380
7380
E700
7E00
3C00
ENDCHAR
STARTCHAR seven
ENCODING 55
SWIDTH 769 0
DWIDTH 10 0
BBX 11 13 0 0
BITMAP
0FE0
0FE0
3380
0380
0700
0700
0E00
1C00
1C00
1C00
7000
7000
7000
ENDCHAR
STARTCHAR eight
ENCODING 56
SWIDTH 769 0
DWIDTH 10 0
BBX 11 13 0 0
BITMAP
0780
0FC0
39C0
39C0
3D80
1F00
1F00
3780
7380
7380
E700
7E00
3C00
ENDCHAR
STARTCHAR nine
ENCODING 57
SWIDTH 769 0
DWIDTH 10 0
BBX 11 13 0 0
BITMAP
0780
0FC0
39C0
39C0
39C0
39C0
3F80
1F80
0380
0300
0E00
1C00
7800
ENDCHAR
STARTCHAR colon
ENCODING 58
SWIDTH 667 0
DWIDTH 6 0
BBX 5 9 0 0
BITMAP
38
38
00
00
00
00
00
E0
E0
ENDCHAR
STARTCHAR semicolon
ENCODING 59
SWIDTH 500 0
DWIDTH 6 0
BBX 6 12 0 -3
BITMAP
1C
38
00
00
00
00
00
70
70
60
60
C0
ENDCHAR
STARTCHAR less
ENCODING 60
SWIDTH 1222 0
DWIDTH 11 0
BBX 11 9 1 2
BITMAP
00E0
03C0
0F00
3C00
7800
3C00
1E00
0F00
0380
ENDCHAR
STARTCHAR equal
ENCODING 61
SWIDTH 1833 0
DWIDTH 11 0
BBX 10 6 1 3
BITMAP
7FC0
7FC0
0000
0000
FF80
FF80
ENDCHAR
STARTCHAR greater
ENCODING 62
SWIDTH 1222 0
DWIDTH 11 0
BBX 11 9 1 2
BITMAP
3800
1E00
1E00
0780
03C0
0780
3C00
7800
E000
ENDCHAR
STARTCHAR question
ENCODING 63
SWIDTH 692 0
DWIDTH 9 0
BBX 10 13 0 0
BITMAP
0F80
19C0
3B80
3B80
0380
0700
0E00
1C00
1800
1800
0000
3800
3800
ENDCHAR
STARTCHAR at
ENCODING 64
SWIDTH 1200 0
DWIDTH 18 0
BBX 19 15 0 -2
BITMAP
00FC00
03CF00
070380
0E01C0
1CFF80
39FDC0
3B9DC0
3B99C0
777380
73FF00
39DE00
380000
380000
1E3800
07E000
ENDCHAR
STARTCHAR A
ENCODING 65
SWIDTH 1000 0
DWIDTH 13 0
BBX 16 13 -1 0
BITMAP
00C0
00E0
03C0
03E0
03E0
06E0
0CE0
18E0
1FF0
1870
60E0
6070
F0F8
ENDCHAR
STARTCHAR B
ENCODING 66
SWIDTH 1077 0
DWIDTH 14 0
BBX 15 13 0 0
BITMAP
1FE0
0E38
1C38
1C38
1C38
1C70
3FE0
3870
3838
3838
7070
70E0
FF80
ENDCHAR
STARTCHAR C
ENCODING 67
SWIDTH 1000 0
DWIDTH 13 0
BBX 15 13 0 0
BITMAP
01FC
079C
1C18
1C00
3800
3800
7000
7000
7000
3800
7030
3CE0
0F80
ENDCHAR
STARTCHAR D
ENCODING 68
SWIDTH 1154 0
DWIDTH 15 0
BBX 16 13 0 0
BITMAP
1FF0
0E1C
1C1C
1C1C
1C0E
1C0E
381C
381C
381C
3838
7070
70E0
FF80
ENDCHAR
STARTCHAR E
ENCODING 69
SWIDTH 923 0
DWIDTH 12 0
BBX 14 13 0 0
BITMAP
1FF8
0E18
1C00
1C00
1C00
1C60
3FC0
38C0
3800
3800
7000
7060
FFC0
ENDCHAR
STARTCHAR F
ENCODING 70
SWIDTH 923 0
DWIDTH 12 0
BBX 13 13 0 0
BITMAP
1FF8
0E18
1C00
1C00
1C00
1C60
3FC0
38C0
3800
3800
7000
7000
F800
ENDCHAR
STARTCHAR G
ENCODING 71
SWIDTH 1154 0
DWIDTH 15 0
BBX 16 13 0 0
BITMAP
01FC
079C
1C18
1C00
3800
3800
7000
707C
7038
3838
7070
3CF0
0FC0
ENDCHAR
STARTCHAR H
ENCODING 72
SWIDTH 1154 0
DWIDTH 15 0
BBX 16 13 0 0
BITMAP
1F1F
0E0E
1C1C
1C1C
1C1C
1C1C
3FF8
3838
3838
3838
7070
7070
F8F8
ENDCHAR
STARTCHAR I
ENCODING 73
SWIDTH 538 0
DWIDTH 7 0
BBX 8 13 0 0
BITMAP
1F
0E
1C
1C
1C
1C
38
38
38
38
70
70
F8
ENDCHAR
STARTCHAR J
ENCODING 74
SWIDTH 692 0
DWIDTH 9 0
BBX 10 13 0 0
BITMAP
07C0
0380
0700
0700
0700
0700
0E00
0E00
0E00
0E00
FC00
FC00
7800
ENDCHAR
STARTCHAR K
ENCODING 75
SWIDTH 1077 0
DWIDTH 14 0
BBX 16 13 0 0
BITMAP
1F7E
0E38
1CE0
1DC0
1F80
1F80
3F80
3BC0
39C0
38E0
71E0
70E0
FBF8
ENDCHAR
STARTCHAR L
ENCODING 76
SWIDTH 923 0
DWIDTH 12 0
BBX 14 13 0 0
BITMAP
1F00
0E00
1C00
1C00
1C00
1C00
3800
3800
3800
3800
7000
7060
FFC0
ENDCHAR
STARTCHAR M
ENCODING 77
SWIDTH 1308 0
DWIDTH 17 0
BBX 18 13 0 0
BITMAP
1F07C0
0F0780
1F1F00
1F1F00
1F1F00
1BB700
376E00
376E00
33CE00
33CE00
679C00
631C00
F33E00
ENDCHAR
STARTCHAR N
ENCODING 78
SWIDTH 1154 0
DWIDTH 15 0
BBX 16 13 0 0
BITMAP
1F0F
0F06
1F0C
1F8C
1BCC
19CC
33D8
31F8
30F8
3078
60F0
6070
F030
ENDCHAR
STARTCHAR O
ENCODING 79
SWIDTH 1154 0
DWIDTH 15 0
BBX 16 13 0 0
BITMAP
01F0
071C
1C1C
1C1C
380E
380E
701C
701C
701C
3838
7070
38E0
0F80
ENDCHAR
STARTCHAR P
ENCODING 80
SWIDTH 923 0
DWIDTH 12 0
BBX 14 13 0 0
BITMAP
1FE0
0E38
1C38
1C38
1C38
1C70
3F80
3800
3800
3800
7000
7000
F800
ENDCHAR
STARTCHAR Q
ENCODING 81
SWIDTH 938 0
DWIDTH 15 0
BBX 17 16 0 -3
BITMAP
00F800
071C00
0E0E00
0E0E00
1C0700
380E00
380E00
380E00
380E00
383800
383800
1C7000
07C000
078000
01C000
007000
ENDCHAR
STARTCHAR R
ENCODING 82
SWIDTH 1000 0
DWIDTH 13 0
BBX 15 13 0 0
BITMAP
1FF0
0E38
1C38
1C38
1C38
1C70
3FC0
39C0
38E0
38E0
70E0
70E0
F870
ENDCHAR
STARTCHAR S
ENCODING 83
SWIDTH 846 0
DWIDTH 11 0
BBX 12 13 0 0
BITMAP
07E0
0EE0
38C0
38C0
3C00
1E00
1F00
0780
03C0
61C0
C380
E700
FE00
ENDCHAR
STARTCHAR T
ENCODING 84
SWIDTH 1000 0
DWIDTH 13 0
BBX 14 13 0 0
BITMAP
1FFC
19CC
0380
0380
0380
0380
0700
0700
0700
0700
0E00
0E00
1F00
ENDCHAR
STARTCHAR U
ENCODING 85
SWIDTH 1154 0
DWIDTH 15 0
BBX 16 13 0 0
BITMAP
1F0F
0E06
1C0C
1C0C
1C0C
1C0C
3818
3818
3818
3818
3860
3CE0
0F80
ENDCHAR
STARTCHAR V
ENCODING 86
SWIDTH 1000 0
DWIDTH 13 0
BBX 16 13 -1 0
BITMAP
1F1F
0E0E
1C18
0E18
0E30
0E30
0EC0
0EC0
0780
0780
0F00
0600
0600
ENDCHAR
STARTCHAR W
ENCODING 87
SWIDTH 1385 0
DWIDTH 18 0
BBX 21 13 -1 0
BITMAP
1F7C78
0E3830
1C7060
0E38C0
0E38C0
0E38C0
0EFB00
0EFB00
079E00
079E00
0F3C00
061800
061800
ENDCHAR
STARTCHAR X
ENCODING 88
SWIDTH 1000 0
DWIDTH 13 0
BBX 16 13 -1 0
BITMAP
1F9F
070E
0718
07B0
03E0
01E0
03C0
07C0
06E0
0CF0
30E0
7070
F8F8
ENDCHAR
STARTCHAR Y
ENCODING 89
SWIDTH 1000 0
DWIDTH 13 0
BBX 16 13 -1 0
BITMAP
1F0F
0E06
0E18
0E18
0730
03E0
07C0
0380
0380
0380
0700
0700
0F80
ENDCHAR
STARTCHAR Z
ENCODING 90
SWIDTH 1000 0
DWIDTH 13 0
BBX 15 13 0 0
BITMAP
0FFC
0C38
0070
00E0
01E0
01C0
0700
0F00
0E00
1C00
7800
7030
FFE0
ENDCHAR
STARTCHAR bracketleft
ENCODING 91
SWIDTH 412 0
DWIDTH 7 0
BBX 9 17 1 -3
BITMAP
0F80
0E00
1C00
1C00
1C00
1C00
3800
3800
3800
3800
7000
7000
7000
7000
E000
E000
F800
ENDCHAR
STARTCHAR backslash
ENCODING 92
SWIDTH 462 0
DWIDTH 6 0
BBX 9 13 -1 0
BITMAP
1C00
1C00
3800
1C00
1C00
1C00
1C00
1C00
1C00
0E00
1C00
1C00
1C00
ENDCHAR
STARTCHAR bracketright
ENCODING 93
SWIDTH 412 0
DWIDTH 7 0
BBX 9 17 -1 -3
BITMAP
0F80
0380
0700
0700
0700
0700
0E00
0E00
0E00
0E00
1C00
1C00
1C00
1C00
3800
3800
F800
ENDCHAR
STARTCHAR asciicircum
ENCODING 94
SWIDTH 2500 0
DWIDTH 10 0
BBX 9 4 2 10
BITMAP
0C00
3C00
7E00
E700
ENDCHAR
STARTCHAR underscore
ENCODING 95
SWIDTH 10000 0
DWIDTH 10 0
BBX 10 1 -1 -2
BITMAP
FFC0
ENDCHAR
STARTCHAR grave
ENCODING 96
SWIDTH 2333 0
DWIDTH 7 0
BBX 5 3 2 11
BITMAP
E0
70
18
ENDCHAR
STARTCHAR a
ENCODING 97
SWIDTH 1111 0
DWIDTH 10 0
BBX 11 9 0 0
BITMAP
0F80
39C0
7380
0F80
3B80
7380
E700
FF00
7F80
ENDCHAR
STARTCHAR b
ENCODING 98
SWIDTH 786 0
DWIDTH 11 0
BBX 13 14 0 0
BITMAP
0600
1E00
0E00
1C00
1C00
1FC0
1EE0
38E0
38E0
38E0
38E0
71C0
7380
3F00
ENDCHAR
STARTCHAR c
ENCODING 99
SWIDTH 1000 0
DWIDTH 9 0
BBX 10 9 0 0
BITMAP
0F80
1DC0
7380
7000
7000
7000
E300
7700
3E00
ENDCHAR
STARTCHAR d
ENCODING 100
SWIDTH 786 0
DWIDTH 11 0
BBX 13 14 0 0
BITMAP
0030
00F0
0070
00E0
00E0
0FE0
1DE0
71C0
71C0
71C0
71C0
E380
7780
3FC0
ENDCHAR
STARTCHAR e
ENCODING 101
SWIDTH 1000 0
DWIDTH 9 0
BBX 10 9 0 0
BITMAP
0F00
1F80
7380
7F80
7000
7000
E300
7700
3E00
ENDCHAR
STARTCHAR f
ENCODING 102
SWIDTH 500 0
DWIDTH 7 0
BBX 9 14 0 0
BITMAP
0780
0F80
0E00
1C00
3F00
1C00
1C00
3800
3800
3800
3800
7000
7000
F800
ENDCHAR
STARTCHAR g
ENCODING 103
SWIDTH 846 0
DWIDTH 11 0
BBX 13 13 -1 -4
BITMAP
03C0
07F8
1CE0
1CE0
0FC0
0780
1C00
3800
3FC0
71E0
E1C0
E380
7F00
ENDCHAR
STARTCHAR h
ENCODING 104
SWIDTH 786 0
DWIDTH 11 0
BBX 13 14 0 0
BITMAP
0600
1E00
0E00
1C00
1C00
1FC0
1EE0
39C0
39C0
39C0
39C0
7380
7380
FBC0
ENDCHAR
STARTCHAR i
ENCODING 105
SWIDTH 429 0
DWIDTH 6 0
BBX 8 14 0 0
BITMAP
0E
0E
00
00
00
1C
3C
38
38
38
38
70
70
F8
ENDCHAR
STARTCHAR j
ENCODING 106
SWIDTH 278 0
DWIDTH 5 0
BBX 9 18 -2 -4
BITMAP
0380
0380
0000
0000
0000
0700
0F00
0E00
0E00
0E00
0E00
1C00
1C00
1C00
1C00
3800
F800
7000
ENDCHAR
STARTCHAR k
ENCODING 107
SWIDTH 714 0
DWIDTH 10 0
BBX 12 14 0 0
BITMAP
0600
1E00
0E00
1C00
1C00
1FE0
1D80
3E00
3C00
3E00
3F00
7E00
7700
FF80
ENDCHAR
STARTCHAR l
ENCODING 108
SWIDTH 429 0
DWIDTH 6 0
BBX 8 14 0 0
BITMAP
06
1E
0E
1C
1C
1C
1C
38
38
38
38
70
70
F8
ENDCHAR
STARTCHAR m
ENCODING 109
SWIDTH 1556 0
DWIDTH 14 0
BBX 15 9 0 0
BITMAP
0FB8
3FFC
3BB8
3BB8
3BB8
3BB8
7770
7770
FFF8
ENDCHAR
STARTCHAR n
ENCODING 110
SWIDTH 1222 0
DWIDTH 11 0
BBX 12 9 0 0
BITMAP
1FC0
3EE0
39C0
39C0
39C0
39C0
7380
7380
FBC0
ENDCHAR
STARTCHAR o
ENCODING 111
SWIDTH 1111 0
DWIDTH 10 0
BBX 11 9 0 0
BITMAP
0F80
19C0
71C0
71C0
71C0
71C0
E380
7300
3E00
ENDCHAR
STARTCHAR p
ENCODING 112
SWIDTH 923 0
DWIDTH 12 0
BBX 13 13 -1 -4
BITMAP
0FE0
1F70
1C70
1C70
1C70
1C70
38E0
3DC0
3F80
3800
7000
7000
F800
ENDCHAR
STARTCHAR q
ENCODING 113
SWIDTH 846 0
DWIDTH 11 0
BBX 13 13 -1 -4
BITMAP
07F0
0EF0
38E0
38E0
38E0
38E0
71C0
3BC0
1FC0
01C0
0380
0380
07C0
ENDCHAR
STARTCHAR r
ENCODING 114
SWIDTH 889 0
DWIDTH 8 0
BBX 9 9 0 0
BITMAP
1F80
3F80
3B00
3800
3800
3800
7000
7000
F800
ENDCHAR
STARTCHAR s
ENCODING 115
SWIDTH 889 0
DWIDTH 8 0
BBX 9 9 0 0
BITMAP
1F80
3B80
7300
3800
1C00
0E00
CE00
EE00
FC00
ENDCHAR
STARTCHAR t
ENCODING 116
SWIDTH 583 0
DWIDTH 7 0
BBX 9 12 0 0
BITMAP
0600
0C00
1C00
3F00
1C00
3800
3800
3800
3800
7000
7C00
3800
ENDCHAR
STARTCHAR u
ENCODING 117
SWIDTH 1222 0
DWIDTH 11 0
BBX 12 9 0 0
BITMAP
3DE0
1CE0
39C0
39C0
39C0
39C0
7380
7780
3FC0
ENDCHAR
STARTCHAR v
ENCODING 118
SWIDTH 1222 0
DWIDTH 11 0
BBX 12 9 0 0
BITMAP
3EF0
1C60
38C0
1D80
1D80
0F00
1E00
0C00
0C00
ENDCHAR
STARTCHAR w
ENCODING 119
SWIDTH 1667 0
DWIDTH 15 0
BBX 16 9 0 0
BITMAP
3FFF
1CE6
39CC
1FFC
1FF8
0F78
1EF0
0C60
0C60
ENDCHAR
STARTCHAR x
ENCODING 120
SWIDTH 1111 0
DWIDTH 10 0
BBX 11 9 0 0
BITMAP
3FE0
1CC0
1F00
1E00
0E00
0F00
3E00
6700
FF80
ENDCHAR
STARTCHAR y
ENCODING 121
SWIDTH 846 0
DWIDTH 11 0
BBX 13 13 -1 -4
BITMAP
1F78
0E30
1C60
0EC0
0EC0
0780
0F00
0600
0600
0E00
7800
F800
7000
ENDCHAR
STARTCHAR z
ENCODING 122
SWIDTH 1000 0
DWIDTH 9 0
BBX 10 9 0 0
BITMAP
3FC0
31C0
0700
0E00
1C00
3800
E000
E300
FF00
ENDCHAR
STARTCHAR braceleft
ENCODING 123
SWIDTH 529 0
DWIDTH 9 0
BBX 10 17 0 -4
BITMAP
03C0
0700
0E00
0E00
0E00
0E00
1C00
1C00
3800
1C00
3800
3800
3800
3800
7000
7000
3C00
ENDCHAR
STARTCHAR bar
ENCODING 124
SWIDTH 313 0
DWIDTH 5 0
BBX 7 16 0 -2
BITMAP
0E
1C
1C
1C
1C
38
38
38
38
70
70
70
70
E0
E0
E0
ENDCHAR
STARTCHAR braceright
ENCODING 125
SWIDTH 529 0
DWIDTH 9 0
BBX 10 17 -1 -4
BITMAP
0F00
0380
0700
0700
0700
0700
0E00
0E00
0700
0E00
1C00
1C00
1C00
1C00
3800
3800
F000
ENDCHAR
STARTCHAR asciitilde
ENCODING 126
SWIDTH 3333 0
DWIDTH 10 0
BBX 8 3 2 11
BITMAP
7B
FF
DE
ENDCHAR
STARTCHAR bullet
ENCODING 149
SWIDTH 1286 0
DWIDTH 9 0
BBX 9 7 1 2
BITMAP
1E00
3F00
7F80
7F80
FF00
7E00
3C00
ENDCHAR
STARTCHAR space
ENCODING 154
SWIDTH 263 0
DWIDTH 5 0
BBX 0 0 -1 0
BITMAP
ENDCHAR
STARTCHAR degree
ENCODING 156
SWIDTH 1200 0
DWIDTH 6 0
BBX 7 5 1 9
BITMAP
3C
7E
CC
FC
78
ENDCHAR
STARTCHAR twosuperior
ENCODING 157
SWIDTH 1000 0
DWIDTH 6 0
BBX 7 6 1 8
BITMAP
3C
6E
0E
38
70
FC
ENDCHAR
STARTCHAR periodcentered
ENCODING 158
SWIDTH 3000 0
DWIDTH 6 0
BBX 3 2 2 4
BITMAP
E0
E0
ENDCHAR
STARTCHAR afii10071
ENCODING 163
SWIDTH 667 0
DWIDTH 8 0
BBX 11 12 0 0
BITMAP
0FC0
1F80
0000
0F00
1F80
7380
7F80
7000
7000
E300
7700
3E00
ENDCHAR
STARTCHAR afii10023
ENCODING 179
SWIDTH 688 0
DWIDTH 11 0
BBX 15 16 0 0
BITMAP
0738
0E70
0000
1FF8
0E18
1C00
1C00
1C00
1C60
3FC0
38C0
3800
3800
7000
7060
FFC0
ENDCHAR
STARTCHAR copyright
ENCODING 191
SWIDTH 1154 0
DWIDTH 15 0
BBX 17 13 -1 0
BITMAP
01F800
070E00
180600
19E600
33BB00
371B00
6E0600
6E3600
676600
33CC00
601800
387000
0FC000
ENDCHAR
STARTCHAR afii10096
ENCODING 192
SWIDTH 1667 0
DWIDTH 15 0
BBX 16 9 0 0
BITMAP
3E7C
1CCE
3B8E
3B8E
3F8E
3B8E
771C
7398
F9F0
ENDCHAR
STARTCHAR afii10065
ENCODING 193
SWIDTH 1111 0
DWIDTH 10 0
BBX 11 9 0 0
BITMAP
1F80
39C0
7380
0F80
3B80
7380
E700
EF00
7F80
ENDCHAR
STARTCHAR afii10066
ENCODING 194
SWIDTH 846 0
DWIDTH 11 0
BBX 13 13 0 0
BITMAP
0030
07E0
1800
3800
3FC0
3CE0
70E0
70E0
70E0
70E0
E1C0
7380
3F00
ENDCHAR
STARTCHAR afii10088
ENCODING 195
SWIDTH 1091 0
DWIDTH 12 0
BBX 13 11 0 -2
BITMAP
3EF8
1C70
1C70
1C70
38E0
38E0
38E0
38E0
FFE0
00E0
0060
ENDCHAR
STARTCHAR afii10069
ENCODING 196
SWIDTH 1000 0
DWIDTH 11 0
BBX 12 11 0 -2
BITMAP
1FF0
0CE0
0CE0
0CE0
19C0
19C0
19C0
31C0
FFC0
E1C0
C0C0
ENDCHAR
STARTCHAR afii10070
ENCODING 197
SWIDTH 1000 0
DWIDTH 9 0
BBX 10 9 0 0
BITMAP
0F00
1F80
7380
7F80
7000
7000
E300
7700
3E00
ENDCHAR
STARTCHAR afii10086
ENCODING 198
SWIDTH 813 0
DWIDTH 13 0
BBX 15 16 -1 -4
BITMAP
01F0
01C0
01C0
07F0
0FF8
3BB8
3BB8
3BB8
3BB8
7770
3FE0
1FC0
0700
0E00
0E00
1F00
ENDCHAR
STARTCHAR afii10068
ENCODING 199
SWIDTH 1000 0
DWIDTH 9 0
BBX 10 9 0 0
BITMAP
3FC0
1CC0
3800
3800
3800
3800
7000
7000
F800
ENDCHAR
STARTCHAR afii10087
ENCODING 200
SWIDTH 1111 0
DWIDTH 10 0
BBX 11 9 0 0
BITMAP
3FE0
1CC0
1F00
1E00
0E00
0F00
3E00
6700
FF80
ENDCHAR
STARTCHAR afii10074
ENCODING 201
SWIDTH 1333 0
DWIDTH 12 0
BBX 13 9 0 0
BITMAP
3E78
1CF0
3BE0
3BE0
3EE0
3EE0
79C0
71C0
FBE0
ENDCHAR
STARTCHAR afii10075
ENCODING 202
SWIDTH 1091 0
DWIDTH 12 0
BBX 13 11 0 0
BITMAP
0EE0
07C0
3C78
1CF0
3BE0
3BE0
3EE0
3EE0
79C0
71C0
FBE0
ENDCHAR
STARTCHAR afii10076
ENCODING 203
SWIDTH 1222 0
DWIDTH 11 0
BBX 12 9 0 0
BITMAP
3EF0
1DF0
3B00
3E00
3E00
3F00
7700
7380
FBC0
ENDCHAR
STARTCHAR afii10077
ENCODING 204
SWIDTH 1333 0
DWIDTH 12 0
BBX 13 9 0 0
BITMAP
0FF8
0670
0CE0
0CE0
0CE0
0CE0
19C0
F9C0
F3E0
ENDCHAR
STARTCHAR afii10078
ENCODING 205
SWIDTH 1444 0
DWIDTH 13 0
BBX 14 9 0 0
BITMAP
3C3C
1E78
3CF0
3FF0
3FF0
3770
6EE0
60E0
F1F0
ENDCHAR
STARTCHAR afii10079
ENCODING 206
SWIDTH 1333 0
DWIDTH 12 0
BBX 13 9 0 0
BITMAP
3EF8
1C70
38E0
38E0
3FE0
38E0
71C0
71C0
FBE0
ENDCHAR
STARTCHAR afii10080
ENCODING 207
SWIDTH 1111 0
DWIDTH 10 0
BBX 11 9 0 0
BITMAP
0F80
19C0
71C0
71C0
71C0
71C0
E380
7300
3E00
ENDCHAR
STARTCHAR afii10081
ENCODING 208
SWIDTH 1333 0
DWIDTH 12 0
BBX 13 9 0 0
BITMAP
3FF8
1C70
38E0
38E0
38E0
38E0
71C0
71C0
FBE0
ENDCHAR
STARTCHAR afii10097
ENCODING 209
SWIDTH 1222 0
DWIDTH 11 0
BBX 13 9 -1 0
BITMAP
0FF8
1C70
38E0
38E0
1FE0
0EE0
39C0
71C0
E3E0
ENDCHAR
STARTCHAR afii10082
ENCODING 210
SWIDTH 923 0
DWIDTH 12 0
BBX 13 13 -1 -4
BITMAP
1FE0
0E70
1C70
1C70
1C70
1C70
38E0
39C0
3F80
3800
7000
7000
F800
ENDCHAR
STARTCHAR afii10083
ENCODING 211
SWIDTH 1000 0
DWIDTH 9 0
BBX 10 9 0 0
BITMAP
0F80
1DC0
7380
7000
7000
7000
E300
7700
3E00
ENDCHAR
STARTCHAR afii10084
ENCODING 212
SWIDTH 1111 0
DWIDTH 10 0
BBX 11 9 0 0
BITMAP
3FE0
3760
6EC0
0E00
0E00
0E00
1C00
1C00
3E00
ENDCHAR
STARTCHAR afii10085
ENCODING 213
SWIDTH 846 0
DWIDTH 11 0
BBX 13 13 -1 -4
BITMAP
1F78
0E30
1C60
0EC0
0EC0
0780
0F00
0600
0600
0E00
7800
F800
7000
ENDCHAR
STARTCHAR afii10072
ENCODING 214
SWIDTH 1778 0
DWIDTH 16 0
BBX 17 9 0 0
BITMAP
3DF780
3EEF80
0DD800
07F000
07F000
0FF800
3BB800
739C00
FFFE00
ENDCHAR
STARTCHAR afii10067
ENCODING 215
SWIDTH 1111 0
DWIDTH 10 0
BBX 11 9 0 0
BITMAP
3FC0
1CE0
39C0
39C0
3F80
39C0
7380
7380
FF00
ENDCHAR
STARTCHAR afii10094
ENCODING 216
SWIDTH 1111 0
DWIDTH 10 0
BBX 11 9 0 0
BITMAP
3E00
1C00
3800
3F80
39C0
39C0
7380
7380
FF00
ENDCHAR
STARTCHAR afii10093
ENCODING 217
SWIDTH 1667 0
DWIDTH 15 0
BBX 16 9 0 0
BITMAP
3E1F
1C0E
381C
3F9C
39DC
39DC
73B8
73B8
FF7C
ENDCHAR
STARTCHAR afii10073
ENCODING 218
SWIDTH 1000 0
DWIDTH 9 0
BBX 10 9 0 0
BITMAP
1F80
31C0
6380
0380
1F00
0380
C700
C700
7E00
ENDCHAR
STARTCHAR afii10090
ENCODING 219
SWIDTH 1778 0
DWIDTH 16 0
BBX 17 9 0 0
BITMAP
3DFF80
1CE700
39CE00
39CE00
39CE00
39CE00
739C00
739C00
FFFE00
ENDCHAR
STARTCHAR afii10095
ENCODING 220
SWIDTH 1000 0
DWIDTH 9 0
BBX 10 9 0 0
BITMAP
1F80
39C0
0380
0380
3F80
0380
0700
E700
7E00
ENDCHAR
STARTCHAR afii10091
ENCODING 221
SWIDTH 1455 0
DWIDTH 16 0
BBX 17 11 0 -2
BITMAP
3DFF80
1CE700
1CE700
1CE700
39CE00
39CE00
39CE00
39CE00
FFFE00
000E00
000600
ENDCHAR
STARTCHAR afii10089
ENCODING 222
SWIDTH 1333 0
DWIDTH 12 0
BBX 13 9 0 0
BITMAP
3EF8
1C70
38E0
38E0
1FE0
00E0
01C0
01C0
03E0
ENDCHAR
STARTCHAR afii10092
ENCODING 223
SWIDTH 1333 0
DWIDTH 12 0
BBX 13 9 0 0
BITMAP
3F80
3700
6E00
0FE0
0E70
0E70
1CE0
1CE0
3FC0
ENDCHAR
STARTCHAR afii10048
ENCODING 224
SWIDTH 1385 0
DWIDTH 18 0
BBX 20 13 0 0
BITMAP
1F0F00
0E39C0
1CE1C0
1CE1C0
1DC0E0
1DC0E0
3F81C0
3B81C0
3B81C0
39C380
738700
71CE00
F8F800
ENDCHAR
STARTCHAR afii10017
ENCODING 225
SWIDTH 1000 0
DWIDTH 13 0
BBX 16 13 -1 0
BITMAP
00C0
00E0
03C0
03E0
03E0
06E0
0CE0
18E0
1FF0
1870
60E0
6070
F0F8
ENDCHAR
STARTCHAR afii10018
ENCODING 226
SWIDTH 1077 0
DWIDTH 14 0
BBX 15 13 0 0
BITMAP
1FFC
0E1C
1C18
1C00
1C00
1FF0
3870
3838
3838
3838
7070
70E0
FFC0
ENDCHAR
STARTCHAR afii10040
ENCODING 227
SWIDTH 1000 0
DWIDTH 15 0
BBX 16 15 0 -2
BITMAP
1F1F
0E0E
0E0E
0E0E
1C1C
1C1C
1C1C
1C1C
3838
3838
3838
3838
FFF8
0038
0018
ENDCHAR
STARTCHAR afii10021
ENCODING 228
SWIDTH 933 0
DWIDTH 14 0
BBX 15 15 0 -2
BITMAP
0FFE
061C
061C
061C
0C38
0C38
0C38
0C38
1870
1870
1870
3070
FFF0
C030
C030
ENDCHAR
STARTCHAR afii10022
ENCODING 229
SWIDTH 1000 0
DWIDTH 13 0
BBX 14 13 0 0
BITMAP
1FF8
0E18
1C00
1C00
1C00
1C60
3FC0
38C0
3800
3800
7000
7060
FFE0
ENDCHAR
STARTCHAR afii10038
ENCODING 230
SWIDTH 1231 0
DWIDTH 16 0
BBX 18 13 0 0
BITMAP
00F800
007000
03F800
0EEE00
1CE700
38E380
71C700
71C700
39CE00
1DDC00
0FE000
038000
07C000
ENDCHAR
STARTCHAR afii10020
ENCODING 231
SWIDTH 1000 0
DWIDTH 13 0
BBX 14 13 0 0
BITMAP
1FFC
0E1C
1C18
1C00
1C00
1C00
3800
3800
3800
3800
7000
7000
F800
ENDCHAR
STARTCHAR afii10039
ENCODING 232
SWIDTH 1154 0
DWIDTH 15 0
BBX 16 13 0 0
BITMAP
1F9F
070E
0718
07B0
03E0
01E0
03C0
07C0
06E0
0CF0
30E0
7070
F8F8
ENDCHAR
STARTCHAR afii10026
ENCODING 233
SWIDTH 1154 0
DWIDTH 15 0
BBX 16 13 0 0
BITMAP
1F1F
0E1E
1C7C
1C7C
1CDC
1CDC
3B38
3B38
3E38
3E38
7870
7870
F8F8
ENDCHAR
STARTCHAR afii10027
ENCODING 234
SWIDTH 938 0
DWIDTH 15 0
BBX 17 16 0 0
BITMAP
01DC00
01F000
00E000
1F1F00
0E1E00
1C7C00
1C7C00
1CDC00
1CDC00
3B3800
3B3800
3E3800
3E3800
787000
787000
F8F800
ENDCHAR
STARTCHAR afii10028
ENCODING 235
SWIDTH 1000 0
DWIDTH 13 0
BBX 14 13 0 0
BITMAP
1F3C
0E7C
1CC0
1D80
1D80
1F00
3B80
39C0
39C0
38E0
71C0
71C0
FBE0
ENDCHAR
STARTCHAR afii10029
ENCODING 236
SWIDTH 1077 0
DWIDTH 14 0
BBX 16 13 -1 0
BITMAP
07FF
038E
071C
071C
071C
071C
0E38
0E38
0E38
0E38
FC70
FC70
78F8
ENDCHAR
STARTCHAR afii10030
ENCODING 237
SWIDTH 1308 0
DWIDTH 17 0
BBX 18 13 0 0
BITMAP
1F07C0
0F0780
1F1F00
1F1F00
1F1F00
1BB700
376E00
376E00
33CE00
33CE00
679C00
631C00
F33E00
ENDCHAR
STARTCHAR afii10031
ENCODING 238
SWIDTH 1154 0
DWIDTH 15 0
BBX 16 13 0 0
BITMAP
1F1F
0E0E
1C1C
1C1C
1C1C
1C1C
3FF8
3838
3838
3838
7070
7070
F8F8
ENDCHAR
STARTCHAR afii10032
ENCODING 239
SWIDTH 1154 0
DWIDTH 15 0
BBX 16 13 0 0
BITMAP
01F0
071C
1C1C
1C1C
380E
380E
701C
701C
701C
3838
7070
38E0
0F80
ENDCHAR
STARTCHAR afii10033
ENCODING 240
SWIDTH 1154 0
DWIDTH 15 0
BBX 16 13 0 0
BITMAP
1FFF
0E0E
1C1C
1C1C
1C1C
1C1C
3838
3838
3838
3838
7070
7070
F8F8
ENDCHAR
STARTCHAR afii10049
ENCODING 241
SWIDTH 1231 0
DWIDTH 16 0
BBX 18 13 -1 0
BITMAP
00FFC0
01C380
070700
070700
070700
038700
03FE00
01CE00
038E00
070E00
1C1C00
381C00
F83E00
ENDCHAR
STARTCHAR afii10034
ENCODING 242
SWIDTH 1077 0
DWIDTH 14 0
BBX 15 13 0 0
BITMAP
1FF0
0E1C
1C1C
1C1C
1C1C
1C1C
3870
3FC0
3800
3800
7000
7000
F800
ENDCHAR
STARTCHAR afii10035
ENCODING 243
SWIDTH 1000 0
DWIDTH 13 0
BBX 15 13 0 0
BITMAP
01FC
079C
1C18
1C00
3800
3800
7000
7000
7000
3800
7030
3CE0
0F80
ENDCHAR
STARTCHAR afii10036
ENCODING 244
SWIDTH 1000 0
DWIDTH 13 0
BBX 14 13 0 0
BITMAP
1FFC
19CC
0380
0380
0380
0380
0700
0700
0700
0700
0E00
0E00
1F00
ENDCHAR
STARTCHAR afii10037
ENCODING 245
SWIDTH 1000 0
DWIDTH 13 0
BBX 16 13 -1 0
BITMAP
1F0F
0E06
0E18
0E18
0730
03B0
07C0
03C0
0180
0180
0600
7E00
3C00
ENDCHAR
STARTCHAR afii10024
ENCODING 246
SWIDTH 1385 0
DWIDTH 18 0
BBX 20 13 0 0
BITMAP
1E7CF0
1F39F0
067300
037600
037600
01FC00
0EEE00
1CE700
1CE700
38E380
71C700
71C700
FBEF80
ENDCHAR
STARTCHAR afii10019
ENCODING 247
SWIDTH 1077 0
DWIDTH 14 0
BBX 15 13 0 0
BITMAP
1FF0
0E38
1C38
1C38
1C38
1C70
3FE0
3870
3838
3838
7070
70E0
FFC0
ENDCHAR
STARTCHAR afii10046
ENCODING 248
SWIDTH 1077 0
DWIDTH 14 0
BBX 15 13 0 0
BITMAP
1F00
0E00
1C00
1C00
1C00
1FF0
3870
3838
3838
3838
7070
70E0
FFC0
ENDCHAR
STARTCHAR afii10045
ENCODING 249
SWIDTH 1385 0
DWIDTH 18 0
BBX 19 13 0 0
BITMAP
1F03E0
0E01C0
1C0380
1C0380
1C0380
1FF380
387700
383F00
383F00
383F00
707E00
70EE00
FFDF00
ENDCHAR
STARTCHAR afii10025
ENCODING 250
SWIDTH 1000 0
DWIDTH 13 0
BBX 14 13 0 0
BITMAP
07C0
1C70
3070
0070
0070
00E0
0FC0
00E0
0070
0070
C0E0
E1C0
3F00
ENDCHAR
STARTCHAR afii10042
ENCODING 251
SWIDTH 1385 0
DWIDTH 18 0
BBX 20 13 0 0
BITMAP
1F7DF0
0E38E0
1C71C0
1C71C0
1C71C0
1C71C0
38E380
38E380
38E380
38E380
71C700
71C700
FFFF80
ENDCHAR
STARTCHAR afii10047
ENCODING 252
SWIDTH 1000 0
DWIDTH 13 0
BBX 14 13 0 0
BITMAP
1FF0
1C38
3038
0038
0038
0638
0FF0
0C70
0070
0070
C0E0
E1C0
FF80
ENDCHAR
STARTCHAR afii10043
ENCODING 253
SWIDTH 1200 0
DWIDTH 18 0
BBX 20 15 0 -2
BITMAP
1F7DF0
0E38E0
0E38E0
0E38E0
1C71C0
1C71C0
1C71C0
1C71C0
38E380
38E380
38E380
38E380
FFFF80
000380
000180
ENDCHAR
STARTCHAR afii10041
ENCODING 254
SWIDTH 1154 0
DWIDTH 15 0
BBX 16 13 0 0
BITMAP
1F1F
0E0E
1C1C
1C1C
1C1C
1C1C
3838
1FF8
0038
0038
0070
0070
00F8
ENDCHAR
STARTCHAR afii10044
ENCODING 255
SWIDTH 1231 0
DWIDTH 16 0
BBX 17 13 0 0
BITMAP
1FC000
1B8000
370000
070000
070000
07FC00
0E1C00
0E0E00
0E0E00
0E0E00
1C1C00
1C3800
3FF000
ENDCHAR
ENDFONT
